<svg version="1.1" id="Layer_1" xmlns="http://www.w3.org/2000/svg" xmlns:xlink="http://www.w3.org/1999/xlink" x="0px" y="0px"
	 width="100%" viewBox="0 0 1200 1200" enable-background="new 0 0 1200 1200" xml:space="preserve">
<path fill="#DC1A22" opacity="1.000000" stroke="none" 
	d="
M664.000000,1201.000000 
	C442.666656,1201.000000 221.833328,1201.000000 1.000000,1201.000000 
	C1.000000,801.000000 1.000000,401.000000 1.000000,1.000000 
	C401.000000,1.000000 801.000000,1.000000 1201.000000,1.000000 
	C1201.000000,401.000000 1201.000000,801.000000 1201.000000,1201.000000 
	C1022.166687,1201.000000 843.333313,1201.000000 664.000000,1201.000000 
M510.911774,927.572327 
	C503.758789,896.748535 496.605835,865.924683 489.313477,834.500122 
	C492.501282,834.500122 494.691803,834.797729 496.769806,834.440491 
	C501.654663,833.600952 503.243622,835.823792 504.166840,840.377930 
	C506.643829,852.596802 509.685364,864.701233 512.502502,876.851196 
	C514.892273,887.158447 517.281799,897.465759 519.747375,908.100708 
	C521.749695,907.029419 523.208740,906.285522 524.633667,905.481079 
	C564.325012,883.073486 604.101318,860.813965 643.643921,838.146667 
	C654.534729,831.903625 665.688538,835.759460 676.782959,835.042908 
	C675.065491,836.710632 673.251221,837.797424 671.406799,838.830444 
	C623.106750,865.880188 574.814026,892.943115 526.472290,919.918152 
	C523.847900,921.382629 522.468567,922.618958 523.262268,926.010437 
	C529.398254,952.228516 535.805847,978.398376 541.123108,1004.785889 
	C543.443909,1016.303040 554.594727,1018.991577 562.931458,1012.830383 
	C617.490662,972.508789 672.337769,932.576843 727.091797,892.518860 
	C737.377625,884.993652 738.127563,882.823120 735.224365,870.157715 
	C732.557556,858.523865 730.002563,846.864441 727.222229,834.428833 
	C808.673279,834.428833 889.522644,834.428833 971.185486,834.428833 
	C951.096741,804.865906 931.588440,776.157288 912.113281,747.497375 
	C931.850769,718.366394 951.314331,689.639771 971.388000,660.012695 
	C945.025574,660.012695 919.817810,660.012695 894.228027,660.012695 
	C894.228027,657.689697 894.228088,655.883667 894.228027,654.077576 
	C894.224304,586.078613 894.005432,518.078552 894.365784,450.081543 
	C894.457458,432.771515 883.574097,417.264404 861.778198,417.370117 
	C790.947632,417.713593 720.114319,417.480438 649.282166,417.544464 
	C645.482483,417.547882 641.545105,417.725555 637.908875,418.703369 
	C624.679199,422.260834 616.718445,433.324799 616.712158,447.817169 
	C616.682312,516.482788 616.697510,585.148376 616.696594,653.813965 
	C616.696594,655.769836 616.696594,657.725708 616.696594,659.851196 
	C608.752319,659.851196 601.353699,659.851196 593.796082,659.851196 
	C593.724548,658.241272 593.615601,656.932678 593.615479,655.624084 
	C593.607910,585.791809 593.556396,515.959534 593.648376,446.127380 
	C593.670837,429.118652 601.350037,415.748596 614.564148,405.467621 
	C618.199280,402.639404 622.355286,400.480621 626.443909,397.906647 
	C626.238159,396.544464 626.106934,395.057709 625.781555,393.614716 
	C620.952515,372.198730 615.914917,350.826904 611.403259,329.344543 
	C610.501404,325.050323 608.488281,323.809570 604.744873,323.056213 
	C535.760071,309.173126 466.793121,295.201630 397.819183,281.264771 
	C390.069031,279.698792 382.299469,278.228943 374.014496,276.612152 
	C403.596344,404.837952 432.988617,532.242188 462.459045,659.985107 
	C457.534790,659.985107 453.410706,659.985107 448.863434,659.985107 
	C412.069366,501.040039 375.292572,342.169525 338.411560,182.848801 
	C333.105133,184.053329 326.672089,185.548813 320.222656,186.969788 
	C308.997406,189.442978 305.825684,194.437332 308.420532,205.572510 
	C311.288971,217.881638 314.131836,230.196747 316.971130,242.512650 
	C344.841766,363.406067 372.711182,484.299713 400.575775,605.194519 
	C404.755249,623.327759 408.908051,641.467224 413.208313,660.192200 
	C352.417816,660.192200 292.046692,660.192200 230.728363,660.192200 
	C250.810898,689.834534 270.353516,718.679932 289.882965,747.505920 
	C270.210388,776.454041 250.780746,805.044678 230.762390,834.501648 
	C233.462814,834.501648 235.234192,834.501648 237.005585,834.501648 
	C307.337830,834.501587 377.670105,834.536377 448.002136,834.410217 
	C451.993591,834.403076 453.745178,835.328857 454.679443,839.460999 
	C463.995209,880.662231 473.542877,921.811035 483.015839,962.976807 
	C487.080902,980.642029 491.101837,998.317505 495.189117,1015.977539 
	C496.666992,1022.363159 501.777130,1026.834961 507.635986,1025.857422 
	C516.450317,1024.386719 525.131531,1022.118408 532.523926,1020.486206 
	C525.281677,989.451660 518.158142,958.925659 510.911774,927.572327 
M412.581818,189.945419 
	C398.777008,185.754578 384.987274,181.513123 371.162567,177.388931 
	C360.091980,174.086334 352.625366,181.020630 355.203552,192.295959 
	C360.163025,213.985458 365.208649,235.656082 370.443451,257.280090 
	C370.821869,258.843414 372.837860,260.827515 374.404053,261.163452 
	C397.932007,266.210236 421.501404,271.066803 445.082703,275.861572 
	C492.235107,285.449036 539.399292,294.978699 586.562744,304.511993 
	C593.284546,305.870667 600.029236,307.116150 607.418213,308.540253 
	C602.249512,288.423584 597.359680,269.289551 592.403320,250.172775 
	C591.135681,245.283691 587.463379,243.155777 582.855286,241.798843 
	C568.687195,237.626785 554.586365,233.226532 540.458984,228.916092 
	C498.093903,215.989929 455.728638,203.064301 412.581818,189.945419 
z"/>
<path fill="#FFFEFE" opacity="1.000000" stroke="none" 
	d="
M510.973145,927.985962 
	C518.158142,958.925659 525.281677,989.451660 532.523926,1020.486206 
	C525.131531,1022.118408 516.450317,1024.386719 507.635986,1025.857422 
	C501.777130,1026.834961 496.666992,1022.363159 495.189117,1015.977539 
	C491.101837,998.317505 487.080902,980.642029 483.015839,962.976807 
	C473.542877,921.811035 463.995209,880.662231 454.679443,839.460999 
	C453.745178,835.328857 451.993591,834.403076 448.002136,834.410217 
	C377.670105,834.536377 307.337830,834.501587 237.005585,834.501648 
	C235.234192,834.501648 233.462814,834.501648 230.762390,834.501648 
	C250.780746,805.044678 270.210388,776.454041 289.882965,747.505920 
	C270.353516,718.679932 250.810898,689.834534 230.728363,660.192200 
	C292.046692,660.192200 352.417816,660.192200 413.208313,660.192200 
	C408.908051,641.467224 404.755249,623.327759 400.575775,605.194519 
	C372.711182,484.299713 344.841766,363.406067 316.971130,242.512650 
	C314.131836,230.196747 311.288971,217.881638 308.420532,205.572510 
	C305.825684,194.437332 308.997406,189.442978 320.222656,186.969788 
	C326.672089,185.548813 333.105133,184.053329 338.411560,182.848801 
	C375.292572,342.169525 412.069366,501.040039 448.863434,659.985107 
	C453.410706,659.985107 457.534790,659.985107 462.459045,659.985107 
	C432.988617,532.242188 403.596344,404.837952 374.014496,276.612152 
	C382.299469,278.228943 390.069031,279.698792 397.819183,281.264771 
	C466.793121,295.201630 535.760071,309.173126 604.744873,323.056213 
	C608.488281,323.809570 610.501404,325.050323 611.403259,329.344543 
	C615.914917,350.826904 620.952515,372.198730 625.781555,393.614716 
	C626.106934,395.057709 626.238159,396.544464 626.443909,397.906647 
	C622.355286,400.480621 618.199280,402.639404 614.564148,405.467621 
	C601.350037,415.748596 593.670837,429.118652 593.648376,446.127380 
	C593.556396,515.959534 593.607910,585.791809 593.615479,655.624084 
	C593.615601,656.932678 593.724548,658.241272 593.796082,659.851196 
	C601.353699,659.851196 608.752319,659.851196 616.696594,659.851196 
	C616.696594,657.725708 616.696594,655.769836 616.696594,653.813965 
	C616.697510,585.148376 616.682312,516.482788 616.712158,447.817169 
	C616.718445,433.324799 624.679199,422.260834 637.908875,418.703369 
	C641.545105,417.725555 645.482483,417.547882 649.282166,417.544464 
	C720.114319,417.480438 790.947632,417.713593 861.778198,417.370117 
	C883.574097,417.264404 894.457458,432.771515 894.365784,450.081543 
	C894.005432,518.078552 894.224304,586.078613 894.228027,654.077576 
	C894.228088,655.883667 894.228027,657.689697 894.228027,660.012695 
	C919.817810,660.012695 945.025574,660.012695 971.388000,660.012695 
	C951.314331,689.639771 931.850769,718.366394 912.113281,747.497375 
	C931.588440,776.157288 951.096741,804.865906 971.185486,834.428833 
	C889.522644,834.428833 808.673279,834.428833 727.222229,834.428833 
	C730.002563,846.864441 732.557556,858.523865 735.224365,870.157715 
	C738.127563,882.823120 737.377625,884.993652 727.091797,892.518860 
	C672.337769,932.576843 617.490662,972.508789 562.931458,1012.830383 
	C554.594727,1018.991577 543.443909,1016.303040 541.123108,1004.785889 
	C535.805847,978.398376 529.398254,952.228516 523.262268,926.010437 
	C522.468567,922.618958 523.847900,921.382629 526.472290,919.918152 
	C574.814026,892.943115 623.106750,865.880188 671.406799,838.830444 
	C673.251221,837.797424 675.065491,836.710632 676.782959,835.042908 
	C665.688538,835.759460 654.534729,831.903625 643.643921,838.146667 
	C604.101318,860.813965 564.325012,883.073486 524.633667,905.481079 
	C523.208740,906.285522 521.749695,907.029419 519.747375,908.100708 
	C517.281799,897.465759 514.892273,887.158447 512.502502,876.851196 
	C509.685364,864.701233 506.643829,852.596802 504.166840,840.377930 
	C503.243622,835.823792 501.654663,833.600952 496.769806,834.440491 
	C494.691803,834.797729 492.501282,834.500122 489.313477,834.500122 
	C496.605835,865.924683 503.758789,896.748535 510.973145,927.985962 
M844.102783,469.392487 
	C822.133118,448.252197 789.251770,442.903564 762.286316,456.428436 
	C757.812378,458.672394 754.343445,458.869995 749.770081,456.605469 
	C709.504761,436.668121 660.359436,457.881073 648.288635,500.862366 
	C641.021545,526.738831 645.458984,551.966431 657.902100,575.274658 
	C673.453247,604.404602 696.561157,627.052185 722.756287,646.857544 
	C735.002380,656.116516 747.663940,662.721436 763.506958,660.128113 
	C766.518188,659.635193 769.800659,659.160034 772.332764,657.637085 
	C794.174438,644.500061 813.502991,628.301025 830.236694,609.053955 
	C846.714417,590.101440 859.945251,569.395325 864.572510,544.182129 
	C869.693726,516.277222 865.515259,490.825958 844.102783,469.392487 
M390.768066,698.781067 
	C383.213806,688.313904 373.021667,683.053162 360.074005,683.114868 
	C349.242371,683.166504 338.410339,683.125488 327.578461,683.125488 
	C323.130707,683.125488 318.682953,683.125488 314.207092,683.125488 
	C314.207092,718.731750 314.207092,753.764893 314.207092,788.636658 
	C323.811737,788.636658 333.037018,788.636658 342.721375,788.636658 
	C342.721375,777.852722 342.721375,767.427795 342.721375,757.091431 
	C353.064667,755.513245 353.066498,755.512207 357.745392,763.653564 
	C362.060333,771.161621 366.325012,778.699463 370.731812,786.153137 
	C371.406006,787.293335 372.711945,788.840881 373.752960,788.862000 
	C383.804626,789.066589 393.862183,788.984741 404.754181,788.984741 
	C397.028595,775.505798 389.794830,762.884949 382.619415,750.365906 
	C401.350922,734.623657 400.605988,712.912964 390.768066,698.781067 
M834.972168,719.304871 
	C834.589111,720.197510 834.206055,721.090210 833.822937,721.982849 
	C833.320374,721.645386 832.817749,721.307922 832.315186,720.970459 
	C832.315186,717.741455 832.315186,714.512451 832.315186,711.061035 
	C824.103577,711.061035 816.362793,711.061035 808.385864,711.061035 
	C808.385864,747.678650 808.385864,784.049133 808.385864,820.548950 
	C817.741333,820.548950 826.798462,820.548950 836.279175,820.548950 
	C836.279175,806.510620 836.279175,792.792358 836.279175,778.921326 
	C837.003113,779.166565 837.396179,779.176147 837.570251,779.376221 
	C850.852539,794.646362 872.508362,794.103333 884.960144,778.173096 
	C896.907959,762.887390 896.921265,737.943970 885.304871,722.553650 
	C873.382935,706.758423 847.453064,704.215210 834.972168,719.304871 
M753.130493,788.693848 
	C771.302124,793.578491 786.235229,786.602356 793.490295,769.530334 
	C798.359253,758.073181 798.953918,746.249817 795.017883,734.383118 
	C788.979980,716.179749 772.902405,706.692383 754.052429,709.934326 
	C746.624207,711.211975 741.308472,715.749023 735.881470,722.179504 
	C735.881470,717.747864 735.881470,714.526306 735.881470,711.066284 
	C727.653748,711.066284 719.916199,711.066284 712.004944,711.066284 
	C712.004944,747.694824 712.004944,784.071228 712.004944,820.481323 
	C721.367981,820.481323 730.407837,820.481323 740.103027,820.481323 
	C740.103027,806.476562 740.103027,792.854553 740.103027,779.957886 
	C744.302429,782.806580 748.364502,785.562195 753.130493,788.693848 
M629.123718,717.629150 
	C620.933044,741.260925 612.742371,764.892639 604.458862,788.792236 
	C614.751404,788.792236 624.209351,788.792236 633.740051,788.792236 
	C635.883606,781.811951 637.975098,775.001343 640.111084,768.045898 
	C648.742920,768.045898 657.065552,767.898010 665.372437,768.194031 
	C666.728149,768.242371 668.696289,769.998901 669.212830,771.397400 
	C671.333618,777.140259 673.002869,783.049866 674.804993,788.792358 
	C684.655457,788.792358 694.086914,788.792358 703.530579,788.792358 
	C703.530579,788.256287 703.618469,787.900635 703.518005,787.610107 
	C691.826843,753.797607 680.160767,719.976135 668.279419,686.230530 
	C667.786926,684.831848 665.317810,683.358276 663.693237,683.266235 
	C657.551086,682.918213 651.369568,683.310669 645.218689,683.051270 
	C641.946716,682.913269 640.670837,684.154175 639.689941,687.180115 
	C636.457764,697.150513 632.857544,707.001587 629.123718,717.629150 
M494.577057,779.429810 
	C494.576599,775.763733 494.669861,772.093872 494.520538,768.433899 
	C494.473572,767.282776 494.029266,765.375305 493.333557,765.149658 
	C489.118225,763.782410 489.092468,760.412170 489.065765,757.043457 
	C489.004944,749.378601 489.042053,741.712952 489.040924,734.047668 
	C489.039856,726.437866 489.040680,718.828064 489.040680,711.215698 
	C479.415222,711.215698 470.380524,711.215698 461.085754,711.215698 
	C461.085754,725.932861 461.117157,740.245178 461.045410,754.556946 
	C461.036591,756.314514 460.918030,758.319824 460.090759,759.780029 
	C457.220154,764.846802 450.041199,767.851929 445.111298,766.397705 
	C440.487793,765.033691 438.623199,761.699890 438.592712,754.300842 
	C438.540527,741.636658 438.586334,728.971985 438.566742,716.307556 
	C438.564056,714.560547 438.422729,712.813721 438.345093,711.056030 
	C428.818634,711.056030 419.875793,711.056030 410.935852,711.056030 
	C410.736694,711.754272 410.483368,712.224548 410.486053,712.693298 
	C410.590637,731.017578 410.335724,749.355042 410.974640,767.661255 
	C411.418976,780.392700 419.095825,788.975708 429.811218,789.971008 
	C442.960266,791.192444 455.087158,789.016174 464.207092,778.213623 
	C464.452911,777.922424 465.093964,777.964844 465.546631,777.852722 
	C469.070740,789.880249 480.136810,793.886292 494.577026,788.248413 
	C494.577026,785.704285 494.577026,783.049988 494.577057,779.429810 
M512.063477,686.252258 
	C512.063477,694.297913 512.063477,702.343567 512.063477,710.954834 
	C507.829651,710.954834 504.944946,710.954834 502.162720,710.954834 
	C502.162720,718.278870 502.162720,725.016235 502.162720,732.221497 
	C505.406250,732.221497 508.315582,732.221497 511.422546,732.221497 
	C511.422546,736.528503 511.384857,740.357361 511.429993,744.185303 
	C511.541931,753.678467 511.355072,763.191711 511.932892,772.657532 
	C512.394836,780.224182 516.421265,786.123840 523.717224,788.593811 
	C536.602722,792.955994 548.785278,789.561462 560.849548,784.518005 
	C559.090088,776.957275 557.449524,769.907349 555.854919,763.055115 
	C552.130432,763.767578 549.072693,764.634033 545.966553,764.874207 
	C542.234375,765.162842 539.781189,763.151978 539.712891,759.331543 
	C539.552979,750.380188 539.661743,741.423950 539.661743,731.868530 
	C544.910461,731.868530 549.799072,731.868530 554.536133,731.868530 
	C554.536133,724.519287 554.536133,717.782654 554.536133,710.547485 
	C549.414978,710.547485 544.671021,710.547485 539.438171,710.547485 
	C539.438171,702.108521 539.438171,694.171387 539.438171,686.024048 
	C530.275635,686.024048 521.618713,686.024048 512.063477,686.252258 
M581.509399,710.816406 
	C577.441895,710.816406 573.374329,710.816406 569.472412,710.816406 
	C569.472412,737.381226 569.472412,763.090393 569.472412,788.614685 
	C578.916565,788.614685 587.976685,788.614685 596.805115,788.614685 
	C596.805115,762.502441 596.805115,736.778076 596.805115,710.816406 
	C591.799622,710.816406 587.152649,710.816406 581.509399,710.816406 
M638.186279,874.478210 
	C636.727295,876.252075 634.902283,877.836609 633.870300,879.831360 
	C628.250183,890.694885 629.448669,901.650452 634.075439,912.456116 
	C636.819153,918.863953 641.414734,923.499756 648.828247,922.946045 
	C655.935181,922.415161 659.854919,917.237854 661.993652,910.977966 
	C665.758850,899.957947 664.223145,889.302979 658.383423,879.385437 
	C653.807922,871.614990 647.005920,869.942261 638.186279,874.478210 
M593.362915,704.005554 
	C594.628723,703.237671 596.959656,702.513550 596.993347,701.694946 
	C597.283936,694.631897 597.160461,687.551819 597.160461,680.478638 
	C587.470642,680.478638 578.439331,680.478638 569.342529,680.478638 
	C569.342529,688.404663 569.342529,695.971558 569.342529,704.005676 
	C577.191589,704.005676 584.790405,704.005676 593.362915,704.005554 
z"/>
<path fill="#FFFEFE" opacity="1.000000" stroke="none" 
	d="
M412.972626,190.041946 
	C455.728638,203.064301 498.093903,215.989929 540.458984,228.916092 
	C554.586365,233.226532 568.687195,237.626785 582.855286,241.798843 
	C587.463379,243.155777 591.135681,245.283691 592.403320,250.172775 
	C597.359680,269.289551 602.249512,288.423584 607.418213,308.540253 
	C600.029236,307.116150 593.284546,305.870667 586.562744,304.511993 
	C539.399292,294.978699 492.235107,285.449036 445.082703,275.861572 
	C421.501404,271.066803 397.932007,266.210236 374.404053,261.163452 
	C372.837860,260.827515 370.821869,258.843414 370.443451,257.280090 
	C365.208649,235.656082 360.163025,213.985458 355.203552,192.295959 
	C352.625366,181.020630 360.091980,174.086334 371.162567,177.388931 
	C384.987274,181.513123 398.777008,185.754578 412.972626,190.041946 
M511.750092,242.829041 
	C497.184814,238.837296 482.622223,234.835739 468.052856,230.858948 
	C462.761566,229.414673 459.305145,230.701614 458.122437,234.482010 
	C456.766083,238.817490 459.165466,242.266586 464.564362,243.827026 
	C473.805664,246.498016 483.036133,249.206314 492.275848,251.882843 
	C503.111633,255.021729 513.932556,258.214661 524.800293,261.239288 
	C529.471313,262.539307 533.390015,260.192566 534.440613,255.837875 
	C535.453735,251.638657 533.637146,248.970444 528.843140,247.601654 
	C523.413879,246.051498 517.986389,244.495239 511.750092,242.829041 
z"/>
<path fill="#DD1F26" opacity="1.000000" stroke="none" 
	d="
M844.352905,469.644714 
	C865.515259,490.825958 869.693726,516.277222 864.572510,544.182129 
	C859.945251,569.395325 846.714417,590.101440 830.236694,609.053955 
	C813.502991,628.301025 794.174438,644.500061 772.332764,657.637085 
	C769.800659,659.160034 766.518188,659.635193 763.506958,660.128113 
	C747.663940,662.721436 735.002380,656.116516 722.756287,646.857544 
	C696.561157,627.052185 673.453247,604.404602 657.902100,575.274658 
	C645.458984,551.966431 641.021545,526.738831 648.288635,500.862366 
	C660.359436,457.881073 709.504761,436.668121 749.770081,456.605469 
	C754.343445,458.869995 757.812378,458.672394 762.286316,456.428436 
	C789.251770,442.903564 822.133118,448.252197 844.352905,469.644714 
M706.440430,518.804626 
	C708.538513,514.479492 710.285767,509.927948 712.873779,505.919189 
	C714.294983,503.717957 716.908630,501.597748 719.385620,500.931000 
	C722.955383,499.970123 725.484619,502.350250 727.196289,505.685638 
	C731.747864,514.554810 736.484741,523.329163 741.176514,532.125977 
	C746.587463,542.271484 752.028748,552.400696 757.810547,563.197388 
	C766.054749,551.916870 773.741455,541.308228 781.532410,530.776672 
	C785.530823,525.371765 790.424927,525.064209 795.328430,529.843384 
	C800.219055,534.609924 804.956116,539.534363 809.867432,544.278992 
	C810.983765,545.357361 812.528870,546.681335 813.895508,546.703064 
	C825.851440,546.893066 837.811707,546.812927 851.149414,546.812927 
	C851.521729,536.331238 852.941162,526.169067 852.051086,516.213379 
	C848.396790,475.338074 804.609192,450.944275 767.770508,468.967316 
	C759.821777,472.856110 752.409912,472.701813 744.355652,469.200195 
	C738.169556,466.510803 731.540100,464.021057 724.907837,463.311432 
	C683.346313,458.864502 647.797791,497.949738 662.385742,545.817932 
	C671.774597,545.817932 681.260925,545.937256 690.737000,545.680969 
	C692.060120,545.645203 693.846741,544.030457 694.544617,542.691101 
	C698.539307,535.025024 702.269531,527.221313 706.440430,518.804626 
M691.070618,598.393494 
	C708.227905,617.895569 727.855652,634.424988 750.118652,647.855286 
	C753.595764,649.952820 756.505798,649.891846 759.815796,647.884155 
	C788.745789,630.336792 813.776855,608.539551 832.881653,580.404114 
	C837.178772,574.075867 840.654236,567.189697 845.000305,559.713257 
	C834.347229,559.713257 825.168152,559.252319 816.058960,559.852051 
	C808.078491,560.377441 801.811829,558.335754 796.846313,551.926575 
	C794.448669,548.831726 791.400146,546.240967 788.334290,543.102539 
	C786.546631,545.485168 785.139954,547.307739 783.788269,549.170166 
	C776.758606,558.856689 769.785767,568.584778 762.707214,578.235413 
	C757.948486,584.723267 752.190430,584.310364 748.385742,577.258972 
	C743.180664,567.612122 738.070496,557.914001 732.866638,548.266418 
	C728.414490,540.012390 723.887573,531.798645 718.972839,522.795959 
	C714.799377,531.081848 711.078491,538.622742 707.221924,546.093689 
	C699.440430,561.168152 703.653076,559.634644 685.367981,559.709106 
	C679.007996,559.734985 672.647949,559.713257 665.730347,559.713257 
	C671.640503,574.814941 681.075928,586.362976 691.070618,598.393494 
z"/>
<path fill="#DC1D25" opacity="1.000000" stroke="none" 
	d="
M390.965576,699.084412 
	C400.605988,712.912964 401.350922,734.623657 382.619415,750.365906 
	C389.794830,762.884949 397.028595,775.505798 404.754181,788.984741 
	C393.862183,788.984741 383.804626,789.066589 373.752960,788.862000 
	C372.711945,788.840881 371.406006,787.293335 370.731812,786.153137 
	C366.325012,778.699463 362.060333,771.161621 357.745392,763.653564 
	C353.066498,755.512207 353.064667,755.513245 342.721375,757.091431 
	C342.721375,767.427795 342.721375,777.852722 342.721375,788.636658 
	C333.037018,788.636658 323.811737,788.636658 314.207092,788.636658 
	C314.207092,753.764893 314.207092,718.731750 314.207092,683.125488 
	C318.682953,683.125488 323.130707,683.125488 327.578461,683.125488 
	C338.410339,683.125488 349.242371,683.166504 360.074005,683.114868 
	C373.021667,683.053162 383.213806,688.313904 390.965576,699.084412 
M342.566620,720.495117 
	C342.566620,723.925659 342.566620,727.356201 342.566620,731.126587 
	C348.694824,731.126587 354.168457,731.187988 359.640076,731.109070 
	C364.939636,731.032532 367.713379,727.904785 368.254822,721.612549 
	C368.862427,714.551514 366.071411,709.164734 360.889130,708.753601 
	C354.985931,708.285278 349.016968,708.645325 342.566589,708.645325 
	C342.566589,712.576843 342.566589,716.035461 342.566620,720.495117 
z"/>
<path fill="#DC1C24" opacity="1.000000" stroke="none" 
	d="
M835.192017,719.043396 
	C847.453064,704.215210 873.382935,706.758423 885.304871,722.553650 
	C896.921265,737.943970 896.907959,762.887390 884.960144,778.173096 
	C872.508362,794.103333 850.852539,794.646362 837.570251,779.376221 
	C837.396179,779.176147 837.003113,779.166565 836.279175,778.921326 
	C836.279175,792.792358 836.279175,806.510620 836.279175,820.548950 
	C826.798462,820.548950 817.741333,820.548950 808.385864,820.548950 
	C808.385864,784.049133 808.385864,747.678650 808.385864,711.061035 
	C816.362793,711.061035 824.103577,711.061035 832.315186,711.061035 
	C832.315186,714.512451 832.315186,717.741455 832.315186,720.970459 
	C832.817749,721.307922 833.320374,721.645386 833.822937,721.982849 
	C834.206055,721.090210 834.589111,720.197510 835.192017,719.043396 
M865.023926,752.967346 
	C865.090393,751.145508 865.303040,749.315186 865.197327,747.503418 
	C864.796265,740.627014 861.072998,735.668457 854.945435,733.664246 
	C848.722107,731.628845 841.412048,733.133423 838.194458,738.847534 
	C836.139465,742.496826 836.380005,747.634399 836.249084,752.123901 
	C836.069275,758.290100 842.187988,765.033081 848.676453,766.526978 
	C854.291443,767.819702 860.094116,764.634766 863.160339,758.463806 
	C863.891846,756.991760 864.319763,755.368774 865.023926,752.967346 
z"/>
<path fill="#DC1C24" opacity="1.000000" stroke="none" 
	d="
M752.778564,788.505798 
	C748.364502,785.562195 744.302429,782.806580 740.103027,779.957886 
	C740.103027,792.854553 740.103027,806.476562 740.103027,820.481323 
	C730.407837,820.481323 721.367981,820.481323 712.004944,820.481323 
	C712.004944,784.071228 712.004944,747.694824 712.004944,711.066284 
	C719.916199,711.066284 727.653748,711.066284 735.881470,711.066284 
	C735.881470,714.526306 735.881470,717.747864 735.881470,722.179504 
	C741.308472,715.749023 746.624207,711.211975 754.052429,709.934326 
	C772.902405,706.692383 788.979980,716.179749 795.017883,734.383118 
	C798.953918,746.249817 798.359253,758.073181 793.490295,769.530334 
	C786.235229,786.602356 771.302124,793.578491 752.778564,788.505798 
M739.884949,754.812500 
	C744.383179,764.633484 751.739685,768.832764 759.205811,765.841187 
	C767.318848,762.590332 771.389954,750.265991 767.272888,741.419617 
	C764.254822,734.934692 756.904114,731.491272 749.780151,733.225281 
	C743.148376,734.839478 739.737549,739.507874 739.740662,746.977112 
	C739.741638,749.299561 739.758057,751.622070 739.884949,754.812500 
z"/>
<path fill="#DC1C24" opacity="1.000000" stroke="none" 
	d="
M629.261230,717.263794 
	C632.857544,707.001587 636.457764,697.150513 639.689941,687.180115 
	C640.670837,684.154175 641.946716,682.913269 645.218689,683.051270 
	C651.369568,683.310669 657.551086,682.918213 663.693237,683.266235 
	C665.317810,683.358276 667.786926,684.831848 668.279419,686.230530 
	C680.160767,719.976135 691.826843,753.797607 703.518005,787.610107 
	C703.618469,787.900635 703.530579,788.256287 703.530579,788.792358 
	C694.086914,788.792358 684.655457,788.792358 674.804993,788.792358 
	C673.002869,783.049866 671.333618,777.140259 669.212830,771.397400 
	C668.696289,769.998901 666.728149,768.242371 665.372437,768.194031 
	C657.065552,767.898010 648.742920,768.045898 640.111084,768.045898 
	C637.975098,775.001343 635.883606,781.811951 633.740051,788.792236 
	C624.209351,788.792236 614.751404,788.792236 604.458862,788.792236 
	C612.742371,764.892639 620.933044,741.260925 629.261230,717.263794 
M652.820801,720.501160 
	C650.026672,729.845764 647.232544,739.190430 644.356201,748.810059 
	C651.146423,748.810059 657.260925,748.810059 663.772217,748.810059 
	C660.709839,738.158875 657.732544,727.803589 654.432129,716.324402 
	C653.628784,718.293884 653.324951,719.038818 652.820801,720.501160 
z"/>
<path fill="#DD1E26" opacity="1.000000" stroke="none" 
	d="
M494.577026,779.912781 
	C494.577026,783.049988 494.577026,785.704285 494.577026,788.248413 
	C480.136810,793.886292 469.070740,789.880249 465.546631,777.852722 
	C465.093964,777.964844 464.452911,777.922424 464.207092,778.213623 
	C455.087158,789.016174 442.960266,791.192444 429.811218,789.971008 
	C419.095825,788.975708 411.418976,780.392700 410.974640,767.661255 
	C410.335724,749.355042 410.590637,731.017578 410.486053,712.693298 
	C410.483368,712.224548 410.736694,711.754272 410.935852,711.056030 
	C419.875793,711.056030 428.818634,711.056030 438.345093,711.056030 
	C438.422729,712.813721 438.564056,714.560547 438.566742,716.307556 
	C438.586334,728.971985 438.540527,741.636658 438.592712,754.300842 
	C438.623199,761.699890 440.487793,765.033691 445.111298,766.397705 
	C450.041199,767.851929 457.220154,764.846802 460.090759,759.780029 
	C460.918030,758.319824 461.036591,756.314514 461.045410,754.556946 
	C461.117157,740.245178 461.085754,725.932861 461.085754,711.215698 
	C470.380524,711.215698 479.415222,711.215698 489.040680,711.215698 
	C489.040680,718.828064 489.039856,726.437866 489.040924,734.047668 
	C489.042053,741.712952 489.004944,749.378601 489.065765,757.043457 
	C489.092468,760.412170 489.118225,763.782410 493.333557,765.149658 
	C494.029266,765.375305 494.473572,767.282776 494.520538,768.433899 
	C494.669861,772.093872 494.576599,775.763733 494.577026,779.912781 
z"/>
<path fill="#DD1E26" opacity="1.000000" stroke="none" 
	d="
M512.512634,686.138184 
	C521.618713,686.024048 530.275635,686.024048 539.438171,686.024048 
	C539.438171,694.171387 539.438171,702.108521 539.438171,710.547485 
	C544.671021,710.547485 549.414978,710.547485 554.536133,710.547485 
	C554.536133,717.782654 554.536133,724.519287 554.536133,731.868530 
	C549.799072,731.868530 544.910461,731.868530 539.661743,731.868530 
	C539.661743,741.423950 539.552979,750.380188 539.712891,759.331543 
	C539.781189,763.151978 542.234375,765.162842 545.966553,764.874207 
	C549.072693,764.634033 552.130432,763.767578 555.854919,763.055115 
	C557.449524,769.907349 559.090088,776.957275 560.849548,784.518005 
	C548.785278,789.561462 536.602722,792.955994 523.717224,788.593811 
	C516.421265,786.123840 512.394836,780.224182 511.932892,772.657532 
	C511.355072,763.191711 511.541931,753.678467 511.429993,744.185303 
	C511.384857,740.357361 511.422546,736.528503 511.422546,732.221497 
	C508.315582,732.221497 505.406250,732.221497 502.162720,732.221497 
	C502.162720,725.016235 502.162720,718.278870 502.162720,710.954834 
	C504.944946,710.954834 507.829651,710.954834 512.063477,710.954834 
	C512.063477,702.343567 512.063477,694.297913 512.512634,686.138184 
z"/>
<path fill="#DC1C24" opacity="1.000000" stroke="none" 
	d="
M582.007568,710.816406 
	C587.152649,710.816406 591.799622,710.816406 596.805115,710.816406 
	C596.805115,736.778076 596.805115,762.502441 596.805115,788.614685 
	C587.976685,788.614685 578.916565,788.614685 569.472412,788.614685 
	C569.472412,763.090393 569.472412,737.381226 569.472412,710.816406 
	C573.374329,710.816406 577.441895,710.816406 582.007568,710.816406 
z"/>
<path fill="#DD1E25" opacity="1.000000" stroke="none" 
	d="
M638.488953,874.247559 
	C647.005920,869.942261 653.807922,871.614990 658.383423,879.385437 
	C664.223145,889.302979 665.758850,899.957947 661.993652,910.977966 
	C659.854919,917.237854 655.935181,922.415161 648.828247,922.946045 
	C641.414734,923.499756 636.819153,918.863953 634.075439,912.456116 
	C629.448669,901.650452 628.250183,890.694885 633.870300,879.831360 
	C634.902283,877.836609 636.727295,876.252075 638.488953,874.247559 
z"/>
<path fill="#DD1E25" opacity="1.000000" stroke="none" 
	d="
M592.876038,704.005615 
	C584.790405,704.005676 577.191589,704.005676 569.342529,704.005676 
	C569.342529,695.971558 569.342529,688.404663 569.342529,680.478638 
	C578.439331,680.478638 587.470642,680.478638 597.160461,680.478638 
	C597.160461,687.551819 597.283936,694.631897 596.993347,701.694946 
	C596.959656,702.513550 594.628723,703.237671 592.876038,704.005615 
z"/>
<path fill="#DD2028" opacity="1.000000" stroke="none" 
	d="
M512.154114,242.885345 
	C517.986389,244.495239 523.413879,246.051498 528.843140,247.601654 
	C533.637146,248.970444 535.453735,251.638657 534.440613,255.837875 
	C533.390015,260.192566 529.471313,262.539307 524.800293,261.239288 
	C513.932556,258.214661 503.111633,255.021729 492.275848,251.882843 
	C483.036133,249.206314 473.805664,246.498016 464.564362,243.827026 
	C459.165466,242.266586 456.766083,238.817490 458.122437,234.482010 
	C459.305145,230.701614 462.761566,229.414673 468.052856,230.858948 
	C482.622223,234.835739 497.184814,238.837296 512.154114,242.885345 
z"/>
<path fill="#FFFEFE" opacity="1.000000" stroke="none" 
	d="
M706.265015,519.134460 
	C702.269531,527.221313 698.539307,535.025024 694.544617,542.691101 
	C693.846741,544.030457 692.060120,545.645203 690.737000,545.680969 
	C681.260925,545.937256 671.774597,545.817932 662.385742,545.817932 
	C647.797791,497.949738 683.346313,458.864502 724.907837,463.311432 
	C731.540100,464.021057 738.169556,466.510803 744.355652,469.200195 
	C752.409912,472.701813 759.821777,472.856110 767.770508,468.967316 
	C804.609192,450.944275 848.396790,475.338074 852.051086,516.213379 
	C852.941162,526.169067 851.521729,536.331238 851.149414,546.812927 
	C837.811707,546.812927 825.851440,546.893066 813.895508,546.703064 
	C812.528870,546.681335 810.983765,545.357361 809.867432,544.278992 
	C804.956116,539.534363 800.219055,534.609924 795.328430,529.843384 
	C790.424927,525.064209 785.530823,525.371765 781.532410,530.776672 
	C773.741455,541.308228 766.054749,551.916870 757.810547,563.197388 
	C752.028748,552.400696 746.587463,542.271484 741.176514,532.125977 
	C736.484741,523.329163 731.747864,514.554810 727.196289,505.685638 
	C725.484619,502.350250 722.955383,499.970123 719.385620,500.931000 
	C716.908630,501.597748 714.294983,503.717957 712.873779,505.919189 
	C710.285767,509.927948 708.538513,514.479492 706.265015,519.134460 
z"/>
<path fill="#FFFEFE" opacity="1.000000" stroke="none" 
	d="
M690.891602,598.086304 
	C681.075928,586.362976 671.640503,574.814941 665.730347,559.713257 
	C672.647949,559.713257 679.007996,559.734985 685.367981,559.709106 
	C703.653076,559.634644 699.440430,561.168152 707.221924,546.093689 
	C711.078491,538.622742 714.799377,531.081848 718.972839,522.795959 
	C723.887573,531.798645 728.414490,540.012390 732.866638,548.266418 
	C738.070496,557.914001 743.180664,567.612122 748.385742,577.258972 
	C752.190430,584.310364 757.948486,584.723267 762.707214,578.235413 
	C769.785767,568.584778 776.758606,558.856689 783.788269,549.170166 
	C785.139954,547.307739 786.546631,545.485168 788.334290,543.102539 
	C791.400146,546.240967 794.448669,548.831726 796.846313,551.926575 
	C801.811829,558.335754 808.078491,560.377441 816.058960,559.852051 
	C825.168152,559.252319 834.347229,559.713257 845.000305,559.713257 
	C840.654236,567.189697 837.178772,574.075867 832.881653,580.404114 
	C813.776855,608.539551 788.745789,630.336792 759.815796,647.884155 
	C756.505798,649.891846 753.595764,649.952820 750.118652,647.855286 
	C727.855652,634.424988 708.227905,617.895569 690.891602,598.086304 
z"/>
<path fill="#FFFDFD" opacity="1.000000" stroke="none" 
	d="
M342.566589,719.994568 
	C342.566589,716.035461 342.566589,712.576843 342.566589,708.645325 
	C349.016968,708.645325 354.985931,708.285278 360.889130,708.753601 
	C366.071411,709.164734 368.862427,714.551514 368.254822,721.612549 
	C367.713379,727.904785 364.939636,731.032532 359.640076,731.109070 
	C354.168457,731.187988 348.694824,731.126587 342.566620,731.126587 
	C342.566620,727.356201 342.566620,723.925659 342.566589,719.994568 
z"/>
<path fill="#FEFBFB" opacity="1.000000" stroke="none" 
	d="
M864.955688,753.391296 
	C864.319763,755.368774 863.891846,756.991760 863.160339,758.463806 
	C860.094116,764.634766 854.291443,767.819702 848.676453,766.526978 
	C842.187988,765.033081 836.069275,758.290100 836.249084,752.123901 
	C836.380005,747.634399 836.139465,742.496826 838.194458,738.847534 
	C841.412048,733.133423 848.722107,731.628845 854.945435,733.664246 
	C861.072998,735.668457 864.796265,740.627014 865.197327,747.503418 
	C865.303040,749.315186 865.090393,751.145508 864.955688,753.391296 
z"/>
<path fill="#FEFBFB" opacity="1.000000" stroke="none" 
	d="
M739.826172,754.378540 
	C739.758057,751.622070 739.741638,749.299561 739.740662,746.977112 
	C739.737549,739.507874 743.148376,734.839478 749.780151,733.225281 
	C756.904114,731.491272 764.254822,734.934692 767.272888,741.419617 
	C771.389954,750.265991 767.318848,762.590332 759.205811,765.841187 
	C751.739685,768.832764 744.383179,764.633484 739.826172,754.378540 
z"/>
<path fill="#FEF7F7" opacity="1.000000" stroke="none" 
	d="
M652.920959,720.142456 
	C653.324951,719.038818 653.628784,718.293884 654.432129,716.324402 
	C657.732544,727.803589 660.709839,738.158875 663.772217,748.810059 
	C657.260925,748.810059 651.146423,748.810059 644.356201,748.810059 
	C647.232544,739.190430 650.026672,729.845764 652.920959,720.142456 
z"/>
</svg>